# xmcd
#
# Track frame offsets: 
#        150
#        15713
#        28024
#        41930
#        54405
#        73274
#        85790
#        98827
#        112954
#        129452
#
# Disc length: 1945 seconds
#
# Revision: 0
# Processed by: cddbd v1.5.2PL0 Copyright (c) Steve Scherf et al.
# Submitted via: ExactAudioCopyFreeDBPlugin 1.0
#
DISCID=8207970a
DTITLE=Pierre Perret - Comment c'est la chine ?
DYEAR=2011
DGENRE=Variété française
TTITLE0=Comment c'est la Chine ?
TTITLE1=Je suis le vent
TTITLE2=Avant on s'écrivait
TTITLE3=La télé en panne
TTITLE4=C'est pas la vie qu' j'avais rêvée
TTITLE5=Y'a pas d'malaise
TTITLE6=Un p'tit clébard
TTITLE7=C'était elle que j'attendais
TTITLE8=Salut ami d'Aubervilliers
TTITLE9=Y'a rien de plus beau
EXTD=Intégrale 1957 - 2011
EXTT0=
EXTT1=
EXTT2=
EXTT3=
EXTT4=
EXTT5=
EXTT6=
EXTT7=
EXTT8=
EXTT9=
PLAYORDER=
